<mxfile host="Electron" modified="2023-09-08T13:36:22.611Z" agent="Mozilla/5.0 (Windows NT 10.0; Win64; x64) AppleWebKit/537.36 (KHTML, like Gecko) draw.io/21.6.5 Chrome/114.0.5735.243 Electron/25.3.1 Safari/537.36" etag="fVr_lI5SCpb4qnzL-syS" version="21.6.5" type="device">
  <diagram name="Page-1" id="2YBvvXClWsGukQMizWep">
    <mxGraphModel dx="1418" dy="828" grid="1" gridSize="10" guides="1" tooltips="1" connect="1" arrows="1" fold="1" page="1" pageScale="1" pageWidth="827" pageHeight="1169" math="0" shadow="0">
      <root>
        <mxCell id="0" />
        <mxCell id="1" parent="0" />
        <mxCell id="aM9ryv3xv72pqoxQDRHE-1" value=":忘記密碼頁面" style="shape=umlLifeline;perimeter=lifelinePerimeter;whiteSpace=wrap;html=1;container=0;dropTarget=0;collapsible=0;recursiveResize=0;outlineConnect=0;portConstraint=eastwest;newEdgeStyle={&quot;edgeStyle&quot;:&quot;elbowEdgeStyle&quot;,&quot;elbow&quot;:&quot;vertical&quot;,&quot;curved&quot;:0,&quot;rounded&quot;:0};" parent="1" vertex="1">
          <mxGeometry x="175" y="50" width="100" height="1010" as="geometry" />
        </mxCell>
        <mxCell id="aM9ryv3xv72pqoxQDRHE-2" value="" style="html=1;points=[];perimeter=orthogonalPerimeter;outlineConnect=0;targetShapes=umlLifeline;portConstraint=eastwest;newEdgeStyle={&quot;edgeStyle&quot;:&quot;elbowEdgeStyle&quot;,&quot;elbow&quot;:&quot;vertical&quot;,&quot;curved&quot;:0,&quot;rounded&quot;:0};" parent="aM9ryv3xv72pqoxQDRHE-1" vertex="1">
          <mxGeometry x="45" y="70" width="10" height="900" as="geometry" />
        </mxCell>
        <mxCell id="FATohEn67VC4ZCUtdnCY-14" value="" style="shape=umlLifeline;perimeter=lifelinePerimeter;whiteSpace=wrap;html=1;container=1;dropTarget=0;collapsible=0;recursiveResize=0;outlineConnect=0;portConstraint=eastwest;newEdgeStyle={&quot;edgeStyle&quot;:&quot;elbowEdgeStyle&quot;,&quot;elbow&quot;:&quot;vertical&quot;,&quot;curved&quot;:0,&quot;rounded&quot;:0};participant=umlActor;size=60;" parent="1" vertex="1">
          <mxGeometry x="40" y="40" width="30" height="1020" as="geometry" />
        </mxCell>
        <mxCell id="FATohEn67VC4ZCUtdnCY-15" value="點選忘記密碼" style="html=1;verticalAlign=bottom;endArrow=block;edgeStyle=elbowEdgeStyle;elbow=vertical;curved=0;rounded=0;" parent="1" source="FATohEn67VC4ZCUtdnCY-14" target="aM9ryv3xv72pqoxQDRHE-2" edge="1">
          <mxGeometry x="0.002" width="80" relative="1" as="geometry">
            <mxPoint x="54.810344827586164" y="129.9968965517242" as="sourcePoint" />
            <mxPoint x="220" y="129.9968965517242" as="targetPoint" />
            <Array as="points">
              <mxPoint x="140" y="120" />
            </Array>
            <mxPoint as="offset" />
          </mxGeometry>
        </mxCell>
        <mxCell id="CKTwQmuFr4gLuuUH_9-y-1" value=":登入控制器" style="shape=umlLifeline;perimeter=lifelinePerimeter;whiteSpace=wrap;html=1;container=0;dropTarget=0;collapsible=0;recursiveResize=0;outlineConnect=0;portConstraint=eastwest;newEdgeStyle={&quot;edgeStyle&quot;:&quot;elbowEdgeStyle&quot;,&quot;elbow&quot;:&quot;vertical&quot;,&quot;curved&quot;:0,&quot;rounded&quot;:0};" parent="1" vertex="1">
          <mxGeometry x="354" y="50" width="120" height="1010" as="geometry" />
        </mxCell>
        <mxCell id="CKTwQmuFr4gLuuUH_9-y-2" value="" style="html=1;points=[];perimeter=orthogonalPerimeter;outlineConnect=0;targetShapes=umlLifeline;portConstraint=eastwest;newEdgeStyle={&quot;edgeStyle&quot;:&quot;elbowEdgeStyle&quot;,&quot;elbow&quot;:&quot;vertical&quot;,&quot;curved&quot;:0,&quot;rounded&quot;:0};" parent="CKTwQmuFr4gLuuUH_9-y-1" vertex="1">
          <mxGeometry x="55" y="200" width="10" height="770" as="geometry" />
        </mxCell>
        <mxCell id="ltBeMm9jzSjpLKJUCh5K-10" value="" style="html=1;points=[];perimeter=orthogonalPerimeter;outlineConnect=0;targetShapes=umlLifeline;portConstraint=eastwest;newEdgeStyle={&quot;edgeStyle&quot;:&quot;elbowEdgeStyle&quot;,&quot;elbow&quot;:&quot;vertical&quot;,&quot;curved&quot;:0,&quot;rounded&quot;:0};" parent="CKTwQmuFr4gLuuUH_9-y-1" vertex="1">
          <mxGeometry x="65" y="349.98" width="10" height="40.02" as="geometry" />
        </mxCell>
        <mxCell id="ltBeMm9jzSjpLKJUCh5K-11" value="發送驗證信至信箱" style="html=1;align=left;spacingLeft=2;endArrow=block;rounded=0;edgeStyle=orthogonalEdgeStyle;curved=0;rounded=0;" parent="CKTwQmuFr4gLuuUH_9-y-1" target="ltBeMm9jzSjpLKJUCh5K-10" edge="1">
          <mxGeometry relative="1" as="geometry">
            <mxPoint x="65" y="330.0144827586207" as="sourcePoint" />
            <Array as="points">
              <mxPoint x="100" y="329.98" />
              <mxPoint x="100" y="359.98" />
            </Array>
          </mxGeometry>
        </mxCell>
        <mxCell id="ltBeMm9jzSjpLKJUCh5K-16" value="" style="html=1;points=[];perimeter=orthogonalPerimeter;outlineConnect=0;targetShapes=umlLifeline;portConstraint=eastwest;newEdgeStyle={&quot;edgeStyle&quot;:&quot;elbowEdgeStyle&quot;,&quot;elbow&quot;:&quot;vertical&quot;,&quot;curved&quot;:0,&quot;rounded&quot;:0};" parent="CKTwQmuFr4gLuuUH_9-y-1" vertex="1">
          <mxGeometry x="65" y="539.97" width="10" height="40.02" as="geometry" />
        </mxCell>
        <mxCell id="ltBeMm9jzSjpLKJUCh5K-17" value="比對驗證碼" style="html=1;align=left;spacingLeft=2;endArrow=block;rounded=0;edgeStyle=orthogonalEdgeStyle;curved=0;rounded=0;" parent="CKTwQmuFr4gLuuUH_9-y-1" target="ltBeMm9jzSjpLKJUCh5K-16" edge="1">
          <mxGeometry relative="1" as="geometry">
            <mxPoint x="65" y="520.0044827586207" as="sourcePoint" />
            <Array as="points">
              <mxPoint x="100" y="519.97" />
              <mxPoint x="100" y="549.97" />
            </Array>
          </mxGeometry>
        </mxCell>
        <mxCell id="ltBeMm9jzSjpLKJUCh5K-24" value="" style="html=1;points=[];perimeter=orthogonalPerimeter;outlineConnect=0;targetShapes=umlLifeline;portConstraint=eastwest;newEdgeStyle={&quot;edgeStyle&quot;:&quot;elbowEdgeStyle&quot;,&quot;elbow&quot;:&quot;vertical&quot;,&quot;curved&quot;:0,&quot;rounded&quot;:0};" parent="CKTwQmuFr4gLuuUH_9-y-1" vertex="1">
          <mxGeometry x="65" y="709.97" width="10" height="40.02" as="geometry" />
        </mxCell>
        <mxCell id="ltBeMm9jzSjpLKJUCh5K-25" value="比對新密碼與確認密碼" style="html=1;align=left;spacingLeft=2;endArrow=block;rounded=0;edgeStyle=orthogonalEdgeStyle;curved=0;rounded=0;" parent="CKTwQmuFr4gLuuUH_9-y-1" target="ltBeMm9jzSjpLKJUCh5K-24" edge="1">
          <mxGeometry relative="1" as="geometry">
            <mxPoint x="65" y="690.0044827586207" as="sourcePoint" />
            <Array as="points">
              <mxPoint x="100" y="689.97" />
              <mxPoint x="100" y="719.97" />
            </Array>
          </mxGeometry>
        </mxCell>
        <mxCell id="ltBeMm9jzSjpLKJUCh5K-26" value="" style="html=1;points=[];perimeter=orthogonalPerimeter;outlineConnect=0;targetShapes=umlLifeline;portConstraint=eastwest;newEdgeStyle={&quot;edgeStyle&quot;:&quot;elbowEdgeStyle&quot;,&quot;elbow&quot;:&quot;vertical&quot;,&quot;curved&quot;:0,&quot;rounded&quot;:0};" parent="CKTwQmuFr4gLuuUH_9-y-1" vertex="1">
          <mxGeometry x="65" y="789.97" width="10" height="40.02" as="geometry" />
        </mxCell>
        <mxCell id="ltBeMm9jzSjpLKJUCh5K-27" value="計算新密碼SHA256值" style="html=1;align=left;spacingLeft=2;endArrow=block;rounded=0;edgeStyle=orthogonalEdgeStyle;curved=0;rounded=0;" parent="CKTwQmuFr4gLuuUH_9-y-1" target="ltBeMm9jzSjpLKJUCh5K-26" edge="1">
          <mxGeometry relative="1" as="geometry">
            <mxPoint x="65" y="770.0044827586207" as="sourcePoint" />
            <Array as="points">
              <mxPoint x="100" y="769.97" />
              <mxPoint x="100" y="799.97" />
            </Array>
          </mxGeometry>
        </mxCell>
        <mxCell id="ltBeMm9jzSjpLKJUCh5K-1" value="顯示忘記密碼頁面" style="html=1;verticalAlign=bottom;endArrow=open;dashed=1;endSize=8;edgeStyle=elbowEdgeStyle;elbow=vertical;curved=0;rounded=0;" parent="1" source="aM9ryv3xv72pqoxQDRHE-2" target="FATohEn67VC4ZCUtdnCY-14" edge="1">
          <mxGeometry relative="1" as="geometry">
            <mxPoint x="54.81034482758605" y="190" as="targetPoint" />
            <Array as="points">
              <mxPoint x="155" y="190" />
            </Array>
            <mxPoint x="220" y="190" as="sourcePoint" />
          </mxGeometry>
        </mxCell>
        <mxCell id="ltBeMm9jzSjpLKJUCh5K-2" value="輸入電子信箱" style="html=1;verticalAlign=bottom;endArrow=block;edgeStyle=elbowEdgeStyle;elbow=vertical;curved=0;rounded=0;" parent="1" target="CKTwQmuFr4gLuuUH_9-y-2" edge="1">
          <mxGeometry x="-0.519" width="80" relative="1" as="geometry">
            <mxPoint x="54.81034482758605" y="260.0000000000001" as="sourcePoint" />
            <mxPoint x="220" y="260.0000000000001" as="targetPoint" />
            <Array as="points">
              <mxPoint x="150" y="260" />
            </Array>
            <mxPoint as="offset" />
          </mxGeometry>
        </mxCell>
        <mxCell id="ltBeMm9jzSjpLKJUCh5K-3" value=":會員資料庫" style="shape=umlLifeline;perimeter=lifelinePerimeter;whiteSpace=wrap;html=1;container=0;dropTarget=0;collapsible=0;recursiveResize=0;outlineConnect=0;portConstraint=eastwest;newEdgeStyle={&quot;edgeStyle&quot;:&quot;elbowEdgeStyle&quot;,&quot;elbow&quot;:&quot;vertical&quot;,&quot;curved&quot;:0,&quot;rounded&quot;:0};" parent="1" vertex="1">
          <mxGeometry x="550" y="50" width="120" height="1010" as="geometry" />
        </mxCell>
        <mxCell id="ltBeMm9jzSjpLKJUCh5K-4" value="" style="html=1;points=[];perimeter=orthogonalPerimeter;outlineConnect=0;targetShapes=umlLifeline;portConstraint=eastwest;newEdgeStyle={&quot;edgeStyle&quot;:&quot;elbowEdgeStyle&quot;,&quot;elbow&quot;:&quot;vertical&quot;,&quot;curved&quot;:0,&quot;rounded&quot;:0};" parent="ltBeMm9jzSjpLKJUCh5K-3" vertex="1">
          <mxGeometry x="55" y="220" width="10" height="90" as="geometry" />
        </mxCell>
        <mxCell id="ltBeMm9jzSjpLKJUCh5K-28" value="" style="html=1;points=[];perimeter=orthogonalPerimeter;outlineConnect=0;targetShapes=umlLifeline;portConstraint=eastwest;newEdgeStyle={&quot;edgeStyle&quot;:&quot;elbowEdgeStyle&quot;,&quot;elbow&quot;:&quot;vertical&quot;,&quot;curved&quot;:0,&quot;rounded&quot;:0};" parent="ltBeMm9jzSjpLKJUCh5K-3" vertex="1">
          <mxGeometry x="55" y="850" width="10" height="80" as="geometry" />
        </mxCell>
        <mxCell id="ltBeMm9jzSjpLKJUCh5K-5" value="查詢電子信箱所屬會員" style="html=1;verticalAlign=bottom;endArrow=block;edgeStyle=elbowEdgeStyle;elbow=vertical;curved=0;rounded=0;" parent="1" source="CKTwQmuFr4gLuuUH_9-y-2" target="ltBeMm9jzSjpLKJUCh5K-4" edge="1">
          <mxGeometry width="80" relative="1" as="geometry">
            <mxPoint x="64.81034482758605" y="270.0000000000001" as="sourcePoint" />
            <mxPoint x="419" y="270" as="targetPoint" />
            <Array as="points">
              <mxPoint x="520" y="280" />
            </Array>
          </mxGeometry>
        </mxCell>
        <mxCell id="ltBeMm9jzSjpLKJUCh5K-6" value="傳回會員資料" style="html=1;verticalAlign=bottom;endArrow=open;dashed=1;endSize=8;edgeStyle=elbowEdgeStyle;elbow=vertical;curved=0;rounded=0;" parent="1" source="ltBeMm9jzSjpLKJUCh5K-4" target="CKTwQmuFr4gLuuUH_9-y-2" edge="1">
          <mxGeometry relative="1" as="geometry">
            <mxPoint x="460.00034482758605" y="360" as="targetPoint" />
            <Array as="points">
              <mxPoint x="560" y="350" />
            </Array>
            <mxPoint x="625.19" y="360" as="sourcePoint" />
          </mxGeometry>
        </mxCell>
        <mxCell id="ltBeMm9jzSjpLKJUCh5K-14" value="顯示驗證碼頁面" style="html=1;verticalAlign=bottom;endArrow=open;dashed=1;endSize=8;edgeStyle=elbowEdgeStyle;elbow=vertical;curved=0;rounded=0;" parent="1" source="aM9ryv3xv72pqoxQDRHE-2" target="FATohEn67VC4ZCUtdnCY-14" edge="1">
          <mxGeometry relative="1" as="geometry">
            <mxPoint x="40" y="480" as="targetPoint" />
            <Array as="points">
              <mxPoint x="191" y="480" />
            </Array>
            <mxPoint x="219" y="480" as="sourcePoint" />
          </mxGeometry>
        </mxCell>
        <mxCell id="ltBeMm9jzSjpLKJUCh5K-15" value="輸入驗證碼" style="html=1;verticalAlign=bottom;endArrow=block;edgeStyle=elbowEdgeStyle;elbow=vertical;curved=0;rounded=0;" parent="1" source="FATohEn67VC4ZCUtdnCY-14" target="CKTwQmuFr4gLuuUH_9-y-2" edge="1">
          <mxGeometry x="-0.519" width="80" relative="1" as="geometry">
            <mxPoint x="65" y="550" as="sourcePoint" />
            <mxPoint x="230" y="550" as="targetPoint" />
            <Array as="points">
              <mxPoint x="150" y="550" />
            </Array>
            <mxPoint as="offset" />
          </mxGeometry>
        </mxCell>
        <mxCell id="ltBeMm9jzSjpLKJUCh5K-19" value="要求顯示驗證碼頁面" style="html=1;verticalAlign=bottom;endArrow=block;edgeStyle=elbowEdgeStyle;elbow=vertical;curved=0;rounded=0;" parent="1" source="CKTwQmuFr4gLuuUH_9-y-2" target="aM9ryv3xv72pqoxQDRHE-2" edge="1">
          <mxGeometry width="80" relative="1" as="geometry">
            <mxPoint x="250" y="450" as="sourcePoint" />
            <mxPoint x="436" y="450" as="targetPoint" />
            <Array as="points">
              <mxPoint x="351" y="450" />
            </Array>
          </mxGeometry>
        </mxCell>
        <mxCell id="ltBeMm9jzSjpLKJUCh5K-20" value="要求顯示更改密碼頁面" style="html=1;verticalAlign=bottom;endArrow=block;edgeStyle=elbowEdgeStyle;elbow=vertical;curved=0;rounded=0;" parent="1" source="CKTwQmuFr4gLuuUH_9-y-2" target="aM9ryv3xv72pqoxQDRHE-2" edge="1">
          <mxGeometry width="80" relative="1" as="geometry">
            <mxPoint x="409" y="660" as="sourcePoint" />
            <mxPoint x="230" y="660" as="targetPoint" />
            <Array as="points">
              <mxPoint x="360" y="650" />
            </Array>
          </mxGeometry>
        </mxCell>
        <mxCell id="ltBeMm9jzSjpLKJUCh5K-21" value="顯示更改密碼頁面" style="html=1;verticalAlign=bottom;endArrow=open;dashed=1;endSize=8;edgeStyle=elbowEdgeStyle;elbow=vertical;curved=0;rounded=0;" parent="1" source="aM9ryv3xv72pqoxQDRHE-2" target="FATohEn67VC4ZCUtdnCY-14" edge="1">
          <mxGeometry relative="1" as="geometry">
            <mxPoint x="65" y="670" as="targetPoint" />
            <Array as="points">
              <mxPoint x="201" y="670" />
            </Array>
            <mxPoint x="230" y="670" as="sourcePoint" />
          </mxGeometry>
        </mxCell>
        <mxCell id="ltBeMm9jzSjpLKJUCh5K-23" value="輸入新密碼和確認密碼" style="html=1;verticalAlign=bottom;endArrow=block;edgeStyle=elbowEdgeStyle;elbow=vertical;curved=0;rounded=0;" parent="1" source="FATohEn67VC4ZCUtdnCY-14" target="CKTwQmuFr4gLuuUH_9-y-2" edge="1">
          <mxGeometry x="-0.519" width="80" relative="1" as="geometry">
            <mxPoint x="70" y="729.31" as="sourcePoint" />
            <mxPoint x="400" y="730" as="targetPoint" />
            <Array as="points">
              <mxPoint x="165" y="729.31" />
            </Array>
            <mxPoint as="offset" />
          </mxGeometry>
        </mxCell>
        <mxCell id="ltBeMm9jzSjpLKJUCh5K-29" value="儲存新密碼SHA256值" style="html=1;verticalAlign=bottom;endArrow=block;edgeStyle=elbowEdgeStyle;elbow=vertical;curved=0;rounded=0;" parent="1" source="CKTwQmuFr4gLuuUH_9-y-2" target="ltBeMm9jzSjpLKJUCh5K-28" edge="1">
          <mxGeometry x="-0.0215" width="80" relative="1" as="geometry">
            <mxPoint x="433" y="910" as="sourcePoint" />
            <mxPoint x="787" y="910" as="targetPoint" />
            <Array as="points">
              <mxPoint x="543" y="910.31" />
            </Array>
            <mxPoint as="offset" />
          </mxGeometry>
        </mxCell>
        <mxCell id="W538I5dalasU2Sdy9aCW-1" value="提示更改成功並導向登入頁面" style="html=1;verticalAlign=bottom;endArrow=block;edgeStyle=elbowEdgeStyle;elbow=vertical;curved=0;rounded=0;" edge="1" parent="1" source="CKTwQmuFr4gLuuUH_9-y-2" target="FATohEn67VC4ZCUtdnCY-14">
          <mxGeometry x="0.5176" width="80" relative="1" as="geometry">
            <mxPoint x="70" y="970" as="sourcePoint" />
            <mxPoint x="424" y="970" as="targetPoint" />
            <Array as="points">
              <mxPoint x="220" y="1000" />
            </Array>
            <mxPoint as="offset" />
          </mxGeometry>
        </mxCell>
      </root>
    </mxGraphModel>
  </diagram>
</mxfile>
